HIERARCHY
ROOT hip
{
  OFFSET 0 0 0
  CHANNELS 6 Xposition Yposition Zposition Zrotation Yrotation Xrotation
  JOINT abdomen
  {
    OFFSET 0 20.6881 -0.73152
    CHANNELS 3 Zrotation Xrotation Yrotation
    JOINT chest
    {
      OFFSET 0 11.7043 -0.48768
      CHANNELS 3 Zrotation Xrotation Yrotation
      JOINT neck
      {
        OFFSET 0 22.1894 -2.19456
        CHANNELS 3 Zrotation Xrotation Yrotation
        JOINT head
        {
          OFFSET -0.24384 7.07133 1.2192
          CHANNELS 3 Zrotation Xrotation Yrotation
          JOINT leftEye
          {
            OFFSET 4.14528 8.04674 8.04672
            CHANNELS 3 Zrotation Xrotation Yrotation
            End Site
            {
              OFFSET 1 0 0
            }
          }
          JOINT rightEye
          {
            OFFSET -3.6576 8.04674 8.04672
            CHANNELS 3 Zrotation Xrotation Yrotation
            End Site
            {
              OFFSET 1 0 0
            }
          }
        }
      }
      JOINT rCollar
      {
        OFFSET -2.68224 19.2634 -4.8768
        CHANNELS 3 Zrotation Xrotation Yrotation
        JOINT rShldr
        {
          OFFSET -8.77824 -1.95073 1.46304
          CHANNELS 3 Zrotation Xrotation Yrotation
          JOINT rForeArm
          {
            OFFSET -28.1742 -1.7115 0.48768
            CHANNELS 3 Zrotation Xrotation Yrotation
            JOINT rHand
            {
              OFFSET -22.5879 0.773209 7.07136
              CHANNELS 3 Zrotation Xrotation Yrotation
              JOINT rThumb1
              {
                OFFSET -1.2192 -0.487915 3.41376
                CHANNELS 3 Zrotation Xrotation Yrotation
                JOINT rThumb2
                {
                  OFFSET -3.37035 -0.52449 3.41376
                  CHANNELS 3 Zrotation Xrotation Yrotation
                  End Site
                  {
                    OFFSET -1.78271 -1.18214 1.43049
                  }
                }
              }
              JOINT rIndex1
              {
                OFFSET -7.75947 0.938293 5.60832
                CHANNELS 3 Zrotation Xrotation Yrotation
                JOINT rIndex2
                {
                  OFFSET -2.54057 -0.884171 1.56538
                  CHANNELS 3 Zrotation Xrotation Yrotation
                  End Site
                  {
                    OFFSET -1.62519 -0.234802 1.16502
                  }
                }
              }
              JOINT rMid1
              {
                OFFSET -8.24714 1.18213 3.41376
                CHANNELS 3 Zrotation Xrotation Yrotation
                JOINT rMid2
                {
                  OFFSET -3.10165 -0.590103 1.0647
                  CHANNELS 3 Zrotation Xrotation Yrotation
                  End Site
                  {
                    OFFSET -2.48547 -0.328903 0.83742
                  }
                }
              }
              JOINT rRing1
              {
                OFFSET -8.82822 0.546677 1.51678
                CHANNELS 3 Zrotation Xrotation Yrotation
                JOINT rRing2
                {
                  OFFSET -2.60934 -0.819778 -0.0198488
                  CHANNELS 3 Zrotation Xrotation Yrotation
                  End Site
                  {
                    OFFSET -2.33842 -0.294052 0.168128
                  }
                }
              }
              JOINT rPinky1
              {
                OFFSET -8.27202 -0.0477905 -0.4584
                CHANNELS 3 Zrotation Xrotation Yrotation
                JOINT rPinky2
                {
                  OFFSET -1.82734 -0.647385 -0.700984
                  CHANNELS 3 Zrotation Xrotation Yrotation
                  End Site
                  {
                    OFFSET -1.69225 -0.51767 -0.607171
                  }
                }
              }
            }
          }
        }
      }
      JOINT lCollar
      {
        OFFSET 2.68224 19.2634 -4.8768
        CHANNELS 3 Zrotation Xrotation Yrotation
        JOINT lShldr
        {
          OFFSET 8.77824 -1.95073 1.46304
          CHANNELS 3 Zrotation Xrotation Yrotation
          JOINT lForeArm
          {
            OFFSET 28.1742 -1.7115 0.48768
            CHANNELS 3 Zrotation Xrotation Yrotation
            JOINT lHand
            {
              OFFSET 22.5879 0.773209 7.07136
              CHANNELS 3 Zrotation Xrotation Yrotation
              JOINT lThumb1
              {
                OFFSET 1.2192 -0.487915 3.41376
                CHANNELS 3 Zrotation Xrotation Yrotation
                JOINT lThumb2
                {
                  OFFSET 3.37035 -0.52449 3.41376
                  CHANNELS 3 Zrotation Xrotation Yrotation
                  End Site
                  {
                    OFFSET 1.78271 -1.18214 1.43049
                  }
                }
              }
              JOINT lIndex1
              {
                OFFSET 7.75947 0.938293 5.60832
                CHANNELS 3 Zrotation Xrotation Yrotation
                JOINT lIndex2
                {
                  OFFSET 2.54057 -0.884171 1.56538
                  CHANNELS 3 Zrotation Xrotation Yrotation
                  End Site
                  {
                    OFFSET 1.62519 -0.234802 1.16502
                  }
                }
              }
              JOINT lMid1
              {
                OFFSET 8.24714 1.18213 3.41376
                CHANNELS 3 Zrotation Xrotation Yrotation
                JOINT lMid2
                {
                  OFFSET 3.10165 -0.590103 1.0647
                  CHANNELS 3 Zrotation Xrotation Yrotation
                  End Site
                  {
                    OFFSET 2.48547 -0.328903 0.83742
                  }
                }
              }
              JOINT lRing1
              {
                OFFSET 8.82822 0.546677 1.51678
                CHANNELS 3 Zrotation Xrotation Yrotation
                JOINT lRing2
                {
                  OFFSET 2.60934 -0.819778 -0.0198488
                  CHANNELS 3 Zrotation Xrotation Yrotation
                  End Site
                  {
                    OFFSET 2.33842 -0.294052 0.168128
                  }
                }
              }
              JOINT lPinky1
              {
                OFFSET 8.27202 -0.0477905 -0.4584
                CHANNELS 3 Zrotation Xrotation Yrotation
                JOINT lPinky2
                {
                  OFFSET 1.82734 -0.647385 -0.700984
                  CHANNELS 3 Zrotation Xrotation Yrotation
                  End Site
                  {
                    OFFSET 1.69225 -0.51767 -0.607171
                  }
                }
              }
            }
          }
        }
      }
    }
  }
  JOINT rButtock
  {
    OFFSET -8.77824 4.35084 1.2192
    CHANNELS 3 Zrotation Xrotation Yrotation
    JOINT rThigh
    {
      OFFSET 0 -1.70687 -2.19456
      CHANNELS 3 Zrotation Xrotation Yrotation
      JOINT rShin
      {
        OFFSET 0 -36.8199 0.73152
        CHANNELS 3 Zrotation Xrotation Yrotation
        JOINT rFoot
        {
          OFFSET 0.73152 -45.1104 -5.12064
          CHANNELS 3 Zrotation Xrotation Yrotation
          End Site
          {
            OFFSET -1.1221 -3.69964 12.103
          }
        }
      }
    }
  }
  JOINT lButtock
  {
    OFFSET 8.77824 4.35084 1.2192
    CHANNELS 3 Zrotation Xrotation Yrotation
    JOINT lThigh
    {
      OFFSET 0 -1.70687 -2.19456
      CHANNELS 3 Zrotation Xrotation Yrotation
      JOINT lShin
      {
        OFFSET 0 -36.8199 0.73152
        CHANNELS 3 Zrotation Xrotation Yrotation
        JOINT lFoot
        {
          OFFSET -0.73152 -45.1104 -5.12064
          CHANNELS 3 Zrotation Xrotation Yrotation
          End Site
          {
            OFFSET 1.1221 -3.69964 12.103
          }
        }
      }
    }
  }
}
MOTION
Frames:	4
Frame Time:	0.00833333
7.95495 78.1943 29.2198 0.0 0.0 0.0 -0.140626 -0.000295007 -0.00400528 -0.0387671 -0.000394535 -0.00671567 3.00636e-15 -1.59028e-15 -7.8423e-24 9.01054e-15 3.18055e-15 7.76503e-18 -0.0 0.0 0.0 -0.0 0.0 0.0 1.48961e-15 0.0 1.49089e-16 3.37761e-14 -8.07563e-17 9.93923e-16 5.44421e-13 -1.64196e-13 -2.8625e-14 6.22105e-12 1.56419e-13 3.49861e-14 1.46745e-11 -1.95319e-14 2.8625e-14 2.53363e-11 -3.49861e-14 4.45278e-14 1.4683e-11 -1.47101e-14 1.90833e-14 7.73091 5.47488 0.417314 1.46749e-11 -1.94809e-14 3.49861e-14 2.90554 0.965183 0.102902 1.4686e-11 -1.8487e-14 2.78299e-14 10.2786 0.731801 0.0259123 1.46725e-11 -1.98785e-14 3.49861e-14 2.22167 -0.733487 -0.20892 1.49226e-15 0.0 -1.49089e-16 2.86613e-14 -6.21202e-17 -5.96354e-16 5.45366e-13 1.59425e-13 1.90833e-14 6.21964e-12 -1.75452e-13 9.54166e-15 1.46759e-11 -3.74145e-14 3.18055e-14 2.53442e-11 -6.36111e-14 5.96354e-14 1.46707e-11 -3.45885e-14 4.45278e-14 -7.73091 5.47488 -0.417314 1.46737e-11 -3.66758e-14 2.8625e-14 -2.90554 0.965183 -0.102902 1.46706e-11 -3.73715e-14 3.10104e-14 -10.2786 0.731801 -0.0259123 1.46775e-11 -3.97569e-14 1.90833e-14 -2.22167 -0.733487 0.20892 -2.03217e-16 0.0 -3.88251e-19 0.415467 -2.89234 -0.0363698 -0.0065759 -0.313963 -0.0578463 -0.5217 3.20536 0.125421 2.03217e-16 0.0 3.88251e-19 -0.629337 -3.43715 0.0497307 0.00497778 0.672918 0.0432296 0.523128 2.76331 -0.116509
7.63783 76.8962 30.3588 -1.1559 -0.4255 -7.0916 0.331439 3.12744 0.0957871 0.60933 -0.861439 0.0437766 1.27649 -1.94271 0.456864 -2.60802 -0.518587 0.347048 -0.0 0.0 0.0 -0.0 0.0 0.0 1.98784e-14 -4.80347e-14 5.5916e-15 3.58644 -2.2853 11.3716 -13.0162 -10.0422 13.8836 0.000953462 0.684942 0.0962375 -5.94573e-11 3.47638e-10 2.42346e-10 -1.03113e-10 6.00743e-10 4.18688e-10 -5.9451e-11 3.47643e-10 2.42338e-10 7.73091 5.47488 0.417314 -5.94577e-11 3.47637e-10 2.42351e-10 2.90554 0.965183 0.102902 -5.94471e-11 3.47639e-10 2.42346e-10 10.2786 0.731801 0.0259123 -5.94607e-11 3.47638e-10 2.42352e-10 2.22167 -0.733487 -0.20892 1.9855e-14 -4.80343e-14 5.29342e-15 -8.01797 -2.68759 -10.6149 13.3743 -10.4319 -14.0173 -0.0272346 3.66207 -0.51088 -6.15283e-11 1.14587e-10 -3.47646e-11 -1.06031e-10 1.96123e-10 -5.88295e-11 -6.15332e-11 1.14594e-10 -3.47507e-11 -7.73091 5.47488 -0.417314 -6.15295e-11 1.14587e-10 -3.4764e-11 -2.90554 0.965183 -0.102902 -6.15336e-11 1.14586e-10 -3.47648e-11 -10.2786 0.731801 -0.0259123 -6.15258e-11 1.14585e-10 -3.47748e-11 -2.22167 -0.733487 0.20892 -2.03217e-16 0.0 -3.88251e-19 -1.49964 -7.56217 -2.66594 0.0850124 15.9674 0.207008 -1.33854 -3.21127 -4.55074 2.03217e-16 0.0 3.88251e-19 2.2049 -7.57735 3.49435 -0.0609045 16.0324 -0.203727 1.13015 -3.32233 3.84719
7.63525 76.898 30.3603 -1.1659 -0.4315 -7.1025 0.816111 6.43428 0.202155 1.29647 -1.77296 0.0971895 2.65981 -3.99518 0.942177 -5.3587 -1.06618 0.715264 -0.0 0.0 0.0 -0.0 0.0 0.0 3.9783e-14 -1.02151e-13 1.15978e-14 8.33797 -4.39844 23.4489 -21.4597 -18.6575 29.8263 -0.000540992 1.40874 0.197981 -1.3807e-10 7.28515e-10 5.04062e-10 -2.39357e-10 1.25886e-09 8.70798e-10 -1.38066e-10 7.2852e-10 5.04054e-10 7.73091 5.47488 0.417314 -1.38071e-10 7.28513e-10 5.04064e-10 2.90554 0.965183 0.102902 -1.38061e-10 7.28516e-10 5.04062e-10 10.2786 0.731801 0.0259123 -1.38075e-10 7.28514e-10 5.04067e-10 2.22167 -0.733487 -0.20892 3.97335e-14 -1.0215e-13 1.12997e-14 -17.5542 -5.21894 -21.9054 21.9225 -19.3402 -30.2155 0.0155524 7.53431 -1.0582 -1.41087e-10 2.49069e-10 -7.6947e-11 -2.43204e-10 4.26509e-10 -1.30386e-10 -1.41092e-10 2.49082e-10 -7.69317e-11 -7.73091 5.47488 -0.417314 -1.41087e-10 2.49068e-10 -7.69422e-11 -2.90554 0.965183 -0.102902 -1.41092e-10 2.49067e-10 -7.69466e-11 -10.2786 0.731801 -0.0259123 -1.41084e-10 2.49068e-10 -7.69547e-11 -2.22167 -0.733487 0.20892 -2.03217e-16 0.0 -3.88251e-19 -4.00374 -12.4604 -5.52941 -0.0090452 33.1795 0.562235 -3.34956 -9.87763 -9.62175 2.03217e-16 0.0 3.88251e-19 5.74963 -11.8907 7.22992 0.0363545 32.2686 -0.5305 2.69542 -9.67455 8.14006
7.62218 76.8939 30.3541 -1.2427 -0.4157 -7.0707 1.24251 9.38281 0.298943 1.91008 -2.58352 0.144894 3.92282 -5.82664 1.37692 -7.80521 -1.55553 1.04149 -0.0 0.0 0.0 -0.0 0.0 0.0 5.66559e-14 -1.44104e-13 1.64766e-14 13.3135 -5.78699 34.2862 -24.9272 -22.8837 45.4065 -0.00404618 2.0548 0.288877 -2.07721e-10 1.04295e-09 7.26982e-10 -3.60012e-10 1.8023e-09 1.25597e-09 -2.07719e-10 1.04296e-09 7.26975e-10 7.73091 5.47488 0.417314 -2.07723e-10 1.04295e-09 7.26983e-10 2.90554 0.965183 0.102902 -2.07713e-10 1.04295e-09 7.26982e-10 10.2786 0.731801 0.0259123 -2.07727e-10 1.04295e-09 7.26987e-10 2.22167 -0.733487 -0.20892 5.65806e-14 -1.44103e-13 1.61784e-14 -26.8886 -6.96428 -32.0737 25.2741 -23.6062 -46.1278 0.1173 10.9827 -1.55805 -2.13937e-10 3.43835e-10 -1.04357e-10 -3.68782e-10 5.88497e-10 -1.76608e-10 -2.13941e-10 3.43852e-10 -1.04341e-10 -7.73091 5.47488 -0.417314 -2.13936e-10 3.43833e-10 -1.04349e-10 -2.90554 0.965183 -0.102902 -2.13942e-10 3.43833e-10 -1.04356e-10 -10.2786 0.731801 -0.0259123 -2.13932e-10 3.43835e-10 -1.04363e-10 -2.22167 -0.733487 0.20892 -2.03217e-16 0.0 -3.88251e-19 -6.66203 -16.7626 -8.20654 -0.368021 48.5255 1.07624 -6.1746 -15.5933 -14.4229 2.03217e-16 0.0 3.88251e-19 9.40875 -15.6372 10.6923 0.353842 46.7474 -0.983455 4.92275 -15.1828 12.1865
